<svg width="104" height="32" viewBox="0 0 104 32" fill="none" xmlns="http://www.w3.org/2000/svg">
<rect x="2.45703" y="2" width="28" height="28" fill="white" stroke="url(#paint0_linear_13_393)" stroke-width="4"/>
<path d="M43.457 22.5C42.9504 22.5 42.557 22.36 42.277 22.08C42.0104 21.8 41.877 21.4133 41.877 20.92V9.94C41.877 9.42 42.0104 9.02667 42.277 8.76C42.5437 8.49333 42.9304 8.36 43.437 8.36C43.9304 8.36 44.3104 8.49333 44.577 8.76C44.8437 9.02667 44.977 9.42 44.977 9.94V19.88H50.337C50.7637 19.88 51.0904 19.9933 51.317 20.22C51.557 20.4467 51.677 20.7667 51.677 21.18C51.677 21.6067 51.557 21.9333 51.317 22.16C51.0904 22.3867 50.7637 22.5 50.337 22.5H43.457ZM59.1006 22.72C57.714 22.72 56.494 22.42 55.4406 21.82C54.4006 21.2067 53.5873 20.3533 53.0006 19.26C52.4273 18.1667 52.1406 16.8933 52.1406 15.44C52.1406 14.3333 52.3006 13.34 52.6206 12.46C52.954 11.5667 53.4273 10.8067 54.0406 10.18C54.654 9.54 55.3873 9.04667 56.2406 8.7C57.1073 8.35333 58.0606 8.18 59.1006 8.18C60.514 8.18 61.7406 8.48 62.7806 9.08C63.8206 9.68 64.6273 10.5267 65.2006 11.62C65.7873 12.7 66.0806 13.9667 66.0806 15.42C66.0806 16.5267 65.914 17.5267 65.5806 18.42C65.2473 19.3133 64.774 20.08 64.1606 20.72C63.5473 21.36 62.814 21.8533 61.9606 22.2C61.1073 22.5467 60.154 22.72 59.1006 22.72ZM59.1006 20.08C59.8873 20.08 60.554 19.9 61.1006 19.54C61.6606 19.1667 62.0873 18.6333 62.3806 17.94C62.6873 17.2333 62.8406 16.4 62.8406 15.44C62.8406 13.9733 62.514 12.84 61.8606 12.04C61.2073 11.2267 60.2873 10.82 59.1006 10.82C58.3273 10.82 57.6606 11 57.1006 11.36C56.5406 11.72 56.114 12.2467 55.8206 12.94C55.5273 13.6333 55.3806 14.4667 55.3806 15.44C55.3806 16.8933 55.7073 18.0333 56.3606 18.86C57.014 19.6733 57.9273 20.08 59.1006 20.08ZM75.4586 22.72C73.8719 22.72 72.5253 22.42 71.4186 21.82C70.3253 21.22 69.4919 20.38 68.9186 19.3C68.3453 18.22 68.0586 16.9533 68.0586 15.5C68.0586 14.38 68.2253 13.3733 68.5586 12.48C68.9053 11.5733 69.3986 10.8067 70.0386 10.18C70.6919 9.54 71.4786 9.04667 72.3986 8.7C73.3319 8.35333 74.3853 8.18 75.5586 8.18C76.2786 8.18 76.9986 8.26 77.7186 8.42C78.4386 8.58 79.1319 8.84667 79.7986 9.22C80.0786 9.38 80.2653 9.58667 80.3586 9.84C80.4653 10.08 80.4919 10.34 80.4386 10.62C80.3986 10.8867 80.2919 11.1267 80.1186 11.34C79.9586 11.54 79.7453 11.6733 79.4786 11.74C79.2253 11.7933 78.9319 11.74 78.5986 11.58C78.1586 11.34 77.6919 11.1667 77.1986 11.06C76.7053 10.94 76.1653 10.88 75.5786 10.88C74.6319 10.88 73.8386 11.06 73.1986 11.42C72.5586 11.7667 72.0786 12.2867 71.7586 12.98C71.4519 13.66 71.2986 14.5 71.2986 15.5C71.2986 17.0067 71.6586 18.1467 72.3786 18.92C73.1119 19.6933 74.1919 20.08 75.6186 20.08C76.0986 20.08 76.5919 20.0333 77.0986 19.94C77.6053 19.8467 78.1053 19.7133 78.5986 19.54L78.0186 20.8V16.96H76.2186C75.8186 16.96 75.5119 16.86 75.2986 16.66C75.0853 16.46 74.9786 16.1867 74.9786 15.84C74.9786 15.48 75.0853 15.2067 75.2986 15.02C75.5119 14.82 75.8186 14.72 76.2186 14.72H79.3586C79.7586 14.72 80.0586 14.8267 80.2586 15.04C80.4719 15.2533 80.5786 15.56 80.5786 15.96V20.6C80.5786 20.9467 80.5119 21.24 80.3786 21.48C80.2453 21.72 80.0186 21.8933 79.6986 22C79.0986 22.2133 78.4253 22.3867 77.6786 22.52C76.9319 22.6533 76.1919 22.72 75.4586 22.72ZM89.8623 22.72C88.4757 22.72 87.2557 22.42 86.2023 21.82C85.1623 21.2067 84.349 20.3533 83.7623 19.26C83.189 18.1667 82.9023 16.8933 82.9023 15.44C82.9023 14.3333 83.0623 13.34 83.3823 12.46C83.7157 11.5667 84.189 10.8067 84.8023 10.18C85.4157 9.54 86.149 9.04667 87.0023 8.7C87.869 8.35333 88.8223 8.18 89.8623 8.18C91.2757 8.18 92.5023 8.48 93.5423 9.08C94.5823 9.68 95.389 10.5267 95.9623 11.62C96.549 12.7 96.8423 13.9667 96.8423 15.42C96.8423 16.5267 96.6757 17.5267 96.3423 18.42C96.009 19.3133 95.5357 20.08 94.9223 20.72C94.309 21.36 93.5757 21.8533 92.7223 22.2C91.869 22.5467 90.9157 22.72 89.8623 22.72ZM89.8623 20.08C90.649 20.08 91.3157 19.9 91.8623 19.54C92.4223 19.1667 92.849 18.6333 93.1423 17.94C93.449 17.2333 93.6023 16.4 93.6023 15.44C93.6023 13.9733 93.2757 12.84 92.6223 12.04C91.969 11.2267 91.049 10.82 89.8623 10.82C89.089 10.82 88.4223 11 87.8623 11.36C87.3023 11.72 86.8757 12.2467 86.5823 12.94C86.289 13.6333 86.1423 14.4667 86.1423 15.44C86.1423 16.8933 86.469 18.0333 87.1223 18.86C87.7757 19.6733 88.689 20.08 89.8623 20.08Z" fill="url(#paint1_linear_13_393)"/>
<defs>
<linearGradient id="paint0_linear_13_393" x1="16.457" y1="0" x2="16.457" y2="32" gradientUnits="userSpaceOnUse">
<stop stop-color="#783FED"/>
<stop offset="1" stop-color="#442487"/>
</linearGradient>
<linearGradient id="paint1_linear_13_393" x1="69.457" y1="2.5" x2="69.457" y2="29.5" gradientUnits="userSpaceOnUse">
<stop stop-color="#783FED"/>
<stop offset="1" stop-color="#442487"/>
</linearGradient>
</defs>
</svg>
